<svg xmlns="http://www.w3.org/2000/svg" fill="none" viewBox="0 0 18 18" style="width:36px;height:36px"><g clip-path="url(#chrome_svg__a)"><mask id="chrome_svg__b" width="18" height="18" x="0" y="0" maskUnits="userSpaceOnUse" style="mask-type:luminance"><path fill="#fff" d="M9 17.322A8.323 8.323 0 1 0 9 .676a8.323 8.323 0 0 0 0 16.646"></path></mask><g mask="url(#chrome_svg__b)"><path fill="#db4437" d="M1.999.676V10.89h3.725l3.277-5.674h8.323V.676z"></path><path fill="url(#chrome_svg__c)" d="M1.999.676V10.89h3.725l3.277-5.674h8.323V.676z"></path></g><mask id="chrome_svg__d" width="18" height="18" x="0" y="0" maskUnits="userSpaceOnUse" style="mask-type:luminance"><path fill="#fff" d="M9 17.322A8.323 8.323 0 1 0 9 .676a8.323 8.323 0 0 0 0 16.646"></path></mask><g mask="url(#chrome_svg__d)"><path fill="#3e2723" fill-opacity="0.15" d="m5.814 10.857-3.767-6.46-.055.094 3.74 6.413z"></path></g><mask id="chrome_svg__e" width="18" height="18" x="0" y="0" maskUnits="userSpaceOnUse" style="mask-type:luminance"><path fill="#fff" d="M9 17.322A8.323 8.323 0 1 0 9 .676a8.323 8.323 0 0 0 0 16.646"></path></mask><g mask="url(#chrome_svg__e)"><path fill="#0f9d58" d="M.678 17.322H8.6l3.677-3.678V10.89H5.724L.678 2.234z"></path><path fill="url(#chrome_svg__f)" d="M.678 17.322H8.6l3.677-3.678V10.89H5.724L.678 2.234z"></path></g><mask id="chrome_svg__g" width="18" height="18" x="0" y="0" maskUnits="userSpaceOnUse" style="mask-type:luminance"><path fill="#fff" d="M9 17.322A8.323 8.323 0 1 0 9 .676a8.323 8.323 0 0 0 0 16.646"></path></mask><g mask="url(#chrome_svg__g)"><path fill="#263238" fill-opacity="0.15" d="m12.2 11.018-.078-.045-3.63 6.35H8.6l3.603-6.302z"></path></g><mask id="chrome_svg__h" width="18" height="18" x="0" y="0" maskUnits="userSpaceOnUse" style="mask-type:luminance"><path fill="#fff" d="M9 17.322A8.323 8.323 0 1 0 9 .676a8.323 8.323 0 0 0 0 16.646"></path></mask><g mask="url(#chrome_svg__h)"><mask id="chrome_svg__i" width="13" height="16" x="0" y="2" maskUnits="userSpaceOnUse" style="mask-type:luminance"><path fill="#fff" d="M.678 17.324H8.6l3.677-3.678v-2.754H5.724L.678 2.236z"></path></mask><g mask="url(#chrome_svg__i)"><path fill="#ffcd40" d="m9 5.217 3.278 5.675-3.677 6.43h8.723V5.218z"></path><path fill="url(#chrome_svg__j)" d="m9 5.217 3.278 5.675-3.677 6.43h8.723V5.218z"></path></g></g><mask id="chrome_svg__k" width="18" height="18" x="0" y="0" maskUnits="userSpaceOnUse" style="mask-type:luminance"><path fill="#fff" d="M9 17.322A8.323 8.323 0 1 0 9 .676a8.323 8.323 0 0 0 0 16.646"></path></mask><g mask="url(#chrome_svg__k)"><path fill="#ffcd40" d="m9 5.215 3.278 5.675L8.6 17.32h8.723V5.216z"></path><path fill="url(#chrome_svg__l)" d="m9 5.215 3.278 5.675L8.6 17.32h8.723V5.216z"></path></g><mask id="chrome_svg__m" width="18" height="18" x="0" y="0" maskUnits="userSpaceOnUse" style="mask-type:luminance"><path fill="#fff" d="M9 17.322A8.323 8.323 0 1 0 9 .676a8.323 8.323 0 0 0 0 16.646"></path></mask><g mask="url(#chrome_svg__m)"><mask id="chrome_svg__n" width="10" height="13" x="8" y="5" maskUnits="userSpaceOnUse" style="mask-type:luminance"><path fill="#fff" d="m9 5.215 3.278 5.675L8.6 17.32h8.723V5.216z"></path></mask><g mask="url(#chrome_svg__n)"><path fill="#db4437" d="M1.999.676V10.89h3.725l3.277-5.674h8.323V.676z"></path><path fill="url(#chrome_svg__o)" d="M1.999.676V10.89h3.725l3.277-5.674h8.323V.676z"></path></g></g><mask id="chrome_svg__p" width="18" height="18" x="0" y="0" maskUnits="userSpaceOnUse" style="mask-type:luminance"><path fill="#fff" d="M9 17.322A8.323 8.323 0 1 0 9 .676a8.323 8.323 0 0 0 0 16.646"></path></mask><g mask="url(#chrome_svg__p)"><path fill="url(#chrome_svg__q)" d="M9 5.215v1.981l7.415-1.981z"></path></g><mask id="chrome_svg__r" width="18" height="18" x="0" y="0" maskUnits="userSpaceOnUse" style="mask-type:luminance"><path fill="#fff" d="M9 17.322A8.323 8.323 0 1 0 9 .676a8.323 8.323 0 0 0 0 16.646"></path></mask><g mask="url(#chrome_svg__r)"><mask id="chrome_svg__s" width="17" height="11" x="1" y="0" maskUnits="userSpaceOnUse" style="mask-type:luminance"><path fill="#fff" d="M1.999.676V4.49l3.725 6.4 3.277-5.675h8.323V.676z"></path></mask><g mask="url(#chrome_svg__s)"><path fill="#0f9d58" d="M.678 17.324H8.6l3.677-3.678v-2.754H5.724L.678 2.236z"></path><path fill="url(#chrome_svg__t)" d="M.678 17.324H8.6l3.677-3.678v-2.754H5.724L.678 2.236z"></path></g></g><mask id="chrome_svg__u" width="18" height="18" x="0" y="0" maskUnits="userSpaceOnUse" style="mask-type:luminance"><path fill="#fff" d="M9 17.322A8.323 8.323 0 1 0 9 .676a8.323 8.323 0 0 0 0 16.646"></path></mask><g mask="url(#chrome_svg__u)"><path fill="url(#chrome_svg__v)" d="m1.998 4.502 5.415 5.414-1.69.975z"></path></g><mask id="chrome_svg__w" width="18" height="18" x="0" y="0" maskUnits="userSpaceOnUse" style="mask-type:luminance"><path fill="#fff" d="M9 17.322A8.323 8.323 0 1 0 9 .676a8.323 8.323 0 0 0 0 16.646"></path></mask><g mask="url(#chrome_svg__w)"><path fill="url(#chrome_svg__x)" d="m8.605 17.31 1.983-7.396 1.689.975z"></path></g><mask id="chrome_svg__y" width="18" height="18" x="0" y="0" maskUnits="userSpaceOnUse" style="mask-type:luminance"><path fill="#fff" d="M9 17.322A8.323 8.323 0 1 0 9 .676a8.323 8.323 0 0 0 0 16.646"></path></mask><g mask="url(#chrome_svg__y)"><path fill="#f1f1f1" d="M9 12.781a3.783 3.783 0 1 0 0-7.566 3.783 3.783 0 0 0 0 7.566"></path><path fill="#4285f4" d="M9 12.026a3.027 3.027 0 1 0 0-6.053 3.027 3.027 0 0 0 0 6.053"></path></g><mask id="chrome_svg__z" width="18" height="18" x="0" y="0" maskUnits="userSpaceOnUse" style="mask-type:luminance"><path fill="#fff" d="M9 17.322A8.323 8.323 0 1 0 9 .676a8.323 8.323 0 0 0 0 16.646"></path></mask><g mask="url(#chrome_svg__z)"><path fill="#3e2723" fill-opacity="0.2" d="M9 5.121a3.783 3.783 0 0 0-3.782 3.783V9A3.783 3.783 0 0 1 9 5.216h8.323V5.12z"></path><path fill="#fff" fill-opacity="0.1" d="M12.273 10.89a3.78 3.78 0 0 1-3.272 1.892 3.78 3.78 0 0 1-3.274-1.892h-.003L.678 2.234v.095l5.046 8.656h.004a3.778 3.778 0 0 0 6.546 0h.005v-.095z"></path><path fill="#3e2723" d="M9.095 5.215q-.024 0-.047.003a3.781 3.781 0 0 1 0 7.56q.023.001.047.003a3.783 3.783 0 0 0 0-7.566" opacity="0.1"></path><path fill="#fff" fill-opacity="0.2" d="M12.31 11.016a3.76 3.76 0 0 0 .332-3.032 3.757 3.757 0 0 1-.366 2.903l.002.004L8.6 17.322h.11l3.602-6.303z"></path></g><mask id="chrome_svg__A" width="18" height="18" x="0" y="0" maskUnits="userSpaceOnUse" style="mask-type:luminance"><path fill="#fff" d="M9 17.322A8.323 8.323 0 1 0 9 .676a8.323 8.323 0 0 0 0 16.646"></path></mask><g mask="url(#chrome_svg__A)"><path fill="#fff" fill-opacity="0.2" d="M9 .77c4.581 0 8.297 3.701 8.323 8.276v-.047a8.323 8.323 0 0 0-16.645 0v.047A8.323 8.323 0 0 1 9.002.77"></path><path fill="#3e2723" fill-opacity="0.15" d="M9 17.227c4.581 0 8.297-3.701 8.323-8.276v.047a8.323 8.323 0 0 1-16.645 0v-.047a8.323 8.323 0 0 0 8.323 8.276"></path></g><path fill="url(#chrome_svg__B)" d="M9 17.324A8.323 8.323 0 1 0 9 .678a8.323 8.323 0 0 0 0 16.646"></path></g><defs><linearGradient id="chrome_svg__c" x1="2.696" x2="7.661" y1="7.015" y2="4.114" gradientUnits="userSpaceOnUse"><stop stop-color="#a52714" stop-opacity="0.6"></stop><stop offset="0.66" stop-color="#a52714" stop-opacity="0"></stop></linearGradient><linearGradient id="chrome_svg__f" x1="10.407" x2="4.89" y1="15.477" y2="12.245" gradientUnits="userSpaceOnUse"><stop stop-color="#055524" stop-opacity="0.4"></stop><stop offset="0.33" stop-color="#055524" stop-opacity="0"></stop></linearGradient><linearGradient id="chrome_svg__j" x1="11.447" x2="12.836" y1="4.631" y2="10.715" gradientUnits="userSpaceOnUse"><stop stop-color="#ea6100" stop-opacity="0.3"></stop><stop offset="0.66" stop-color="#ea6100" stop-opacity="0"></stop></linearGradient><linearGradient id="chrome_svg__l" x1="11.447" x2="12.836" y1="4.629" y2="10.713" gradientUnits="userSpaceOnUse"><stop stop-color="#ea6100" stop-opacity="0.3"></stop><stop offset="0.66" stop-color="#ea6100" stop-opacity="0"></stop></linearGradient><linearGradient id="chrome_svg__o" x1="2.696" x2="7.661" y1="7.015" y2="4.114" gradientUnits="userSpaceOnUse"><stop stop-color="#a52714" stop-opacity="0.6"></stop><stop offset="0.66" stop-color="#a52714" stop-opacity="0"></stop></linearGradient><linearGradient id="chrome_svg__t" x1="10.407" x2="4.89" y1="15.479" y2="12.248" gradientUnits="userSpaceOnUse"><stop stop-color="#055524" stop-opacity="0.4"></stop><stop offset="0.33" stop-color="#055524" stop-opacity="0"></stop></linearGradient><radialGradient id="chrome_svg__q" cx="0" cy="0" r="1" gradientTransform="translate(8.639 5.21)scale(7.95199)" gradientUnits="userSpaceOnUse"><stop stop-color="#3e2723" stop-opacity="0.2"></stop><stop offset="1" stop-color="#3e2723" stop-opacity="0"></stop></radialGradient><radialGradient id="chrome_svg__v" cx="0" cy="0" r="1" gradientTransform="translate(1.99 4.509)scale(7.3813)" gradientUnits="userSpaceOnUse"><stop stop-color="#3e2723" stop-opacity="0.2"></stop><stop offset="1" stop-color="#3e2723" stop-opacity="0"></stop></radialGradient><radialGradient id="chrome_svg__x" cx="0" cy="0" r="1" gradientTransform="translate(8.985 9.01)scale(8.31063)" gradientUnits="userSpaceOnUse"><stop stop-color="#263238" stop-opacity="0.2"></stop><stop offset="1" stop-color="#263238" stop-opacity="0"></stop></radialGradient><radialGradient id="chrome_svg__B" cx="0" cy="0" r="1" gradientTransform="translate(3.163 2.949)scale(16.7168)" gradientUnits="userSpaceOnUse"><stop stop-color="#fff" stop-opacity="0.1"></stop><stop offset="1" stop-color="#fff" stop-opacity="0"></stop></radialGradient><clipPath id="chrome_svg__a"><path fill="#fff" d="M.666.666h16.667v16.667H.666z"></path></clipPath></defs></svg>